# xmcd CD database file
#
# Track frame offsets:
#	150
#	21211
#	36121
#	57366
#	73780
#	90776
#	104483
#	118930
#	137218
#	150808
#	173572
#	196651
#	211562
#	232808
#	249802
#
# Disc length: 3632 seconds
#
# Revision: 0
# Processed by: cddbd v1.5.2PL0 Copyright (c) Steve Scherf et al.
# Submitted via: CDex 1.51
#
DISCID=b10e2e0f
DTITLE=Diego Venâncio - Expressão
DYEAR=2007
DGENRE=Country
TTITLE0=Sóbrio Louvor
TTITLE1=Deus da Graça
TTITLE2=Expressão
TTITLE3=Fonte
TTITLE4=Redes
TTITLE5=Tanto Amor
TTITLE6=É tempo
TTITLE7=Complexo e simples
TTITLE8=Sumo Sacerdote
TTITLE9=Dedicação
TTITLE10=Lumaréu
TTITLE11=Deus da Graça PB
TTITLE12=Expressão PB
TTITLE13=Redes PB
TTITLE14=Dedicação PB
EXTD=YEAR: 2007
EXTT0=
EXTT1=
EXTT2=
EXTT3=
EXTT4=
EXTT5=
EXTT6=
EXTT7=
EXTT8=
EXTT9=
EXTT10=
EXTT11=
EXTT12=
EXTT13=
EXTT14=
PLAYORDER=
